<svg xmlns="http://www.w3.org/2000/svg" width="40" height="40" viewBox="0 0 40 40">
    <path data-name="사각형 961" style="fill:none" d="M0 0h40v40H0z"/>
    <path d="M169-782a8.676 8.676 0 0 1-6.37-2.63A8.676 8.676 0 0 1 160-791a8.676 8.676 0 0 1 2.63-6.37A8.676 8.676 0 0 1 169-800a8.7 8.7 0 0 1 4.191.97 9.924 9.924 0 0 1 3.122 2.658v-2.784a.82.82 0 0 1 .239-.6.82.82 0 0 1 .6-.239.82.82 0 0 1 .6.239.82.82 0 0 1 .239.6v5.456a.82.82 0 0 1-.239.6.82.82 0 0 1-.6.239H171.7a.82.82 0 0 1-.6-.239.82.82 0 0 1-.239-.6.82.82 0 0 1 .239-.6.819.819 0 0 1 .6-.239h3.881a8.616 8.616 0 0 0-2.728-2.728 7.1 7.1 0 0 0-3.853-1.046 7.059 7.059 0 0 0-5.189 2.124 7.059 7.059 0 0 0-2.123 5.189 7.059 7.059 0 0 0 2.123 5.189 7.058 7.058 0 0 0 5.189 2.123 7.449 7.449 0 0 0 3.938-1.111 6.951 6.951 0 0 0 2.728-3 .932.932 0 0 1 .464-.464.716.716 0 0 1 .633-.014.759.759 0 0 1 .45.464.9.9 0 0 1-.028.661 8.666 8.666 0 0 1-3.3 3.755A8.965 8.965 0 0 1 169-782z" transform="translate(-149 811)" style="fill:#929397;stroke:#929397;stroke-width:.6px"/>
</svg>
