<svg xmlns="http://www.w3.org/2000/svg" width="40" height="40" viewBox="0 0 40 40">
    <path data-name="사각형 961" style="fill:none" d="M0 0h40v40H0z"/>
    <path data-name="제외 3" d="M-4211.428-4253.427h-11.143a2.289 2.289 0 0 1-2.286-2.287v-13.713h15.714v13.713a2.289 2.289 0 0 1-2.285 2.287zM-4214-4265.5a1 1 0 0 0-1 1v6a1 1 0 0 0 1 1 1 1 0 0 0 1-1v-6a1 1 0 0 0-1-1zm-6 0a1 1 0 0 0-1 1v6a1 1 0 0 0 1 1 1 1 0 0 0 1-1v-6a1 1 0 0 0-1-1zm12-5.071h-18v-2.285h4l1.144-1.145h7.713l1.144 1.145h4v2.284z" transform="translate(4237 4284)" style="fill:#929397"/>
</svg>
