<svg xmlns="http://www.w3.org/2000/svg" width="40" height="40" viewBox="0 0 40 40">
    <path data-name="사각형 962" style="fill:none" d="M0 0h40v40H0z"/>
    <path d="M81.5-784a1.435 1.435 0 0 1-1.038-.462A1.435 1.435 0 0 1 80-785.5v-13a1.435 1.435 0 0 1 .462-1.037A1.435 1.435 0 0 1 81.5-800h6.4a1.459 1.459 0 0 1 .588.125 1.559 1.559 0 0 1 .487.325l1.05 1.05H98.5a1.435 1.435 0 0 1 1.037.463A1.435 1.435 0 0 1 100-797H83a1.447 1.447 0 0 0-1.062.438 1.447 1.447 0 0 0-.438 1.062v10l2.25-8.875a1.406 1.406 0 0 1 .55-.812 1.529 1.529 0 0 1 .925-.312H99.55a1.491 1.491 0 0 1 1.2.575 1.363 1.363 0 0 1 .275 1.3l-2.2 8.475a1.431 1.431 0 0 1-.55.875 1.772 1.772 0 0 1-1.025.274z" transform="translate(-70.72 812.5)" style="fill:rgba(255,255,255,.5)"/>
</svg>
