<svg xmlns="http://www.w3.org/2000/svg" width="37.556" height="38" viewBox="0 0 37.556 38">
    <defs>
        <filter id="h21q5x3n1a" x="0" y="0" width="37.556" height="38" filterUnits="userSpaceOnUse">
            <feOffset dy="3"/>
            <feGaussianBlur stdDeviation="3" result="blur"/>
            <feFlood flood-opacity=".161"/>
            <feComposite operator="in" in2="blur"/>
            <feComposite in="SourceGraphic"/>
        </filter>
    </defs>
    <g transform="translate(-1572.222 -11)">
        <rect data-name="사각형 964" width="24" height="24" rx="12" transform="translate(1579 15)" style="fill:none"/>
        <rect data-name="사각형 1001" width="32" height="32" rx="10" transform="translate(1575 11)" style="opacity:.077;fill:#fff"/>
        <g style="filter:url(#h21q5x3n1a)">
            <path data-name="settings_FILL1_wght400_GRAD0_opsz48" d="M100.425-860h-3.3a.745.745 0 0 1-.487-.175.735.735 0 0 1-.263-.45l-.4-2.525a6.7 6.7 0 0 1-1-.475 6.871 6.871 0 0 1-.925-.625l-2.325 1.075a.743.743 0 0 1-.55.037.725.725 0 0 1-.425-.362l-1.65-2.925a.65.65 0 0 1-.075-.525.834.834 0 0 1 .3-.45l2.15-1.575a2.973 2.973 0 0 1-.062-.513q-.012-.287-.012-.513t.012-.513a2.973 2.973 0 0 1 .063-.513l-2.15-1.575a.834.834 0 0 1-.3-.45.65.65 0 0 1 .075-.525l1.65-2.925a.725.725 0 0 1 .425-.362.743.743 0 0 1 .55.037l2.325 1.075a6.871 6.871 0 0 1 .925-.625 5.175 5.175 0 0 1 1-.45l.4-2.55a.735.735 0 0 1 .263-.45.745.745 0 0 1 .487-.175h3.3a.745.745 0 0 1 .487.175.735.735 0 0 1 .263.45l.4 2.525a8.1 8.1 0 0 1 1.012.462 4.3 4.3 0 0 1 .912.638l2.325-1.075a.743.743 0 0 1 .55-.037.725.725 0 0 1 .425.362l1.65 2.9a.714.714 0 0 1 .088.537.741.741 0 0 1-.312.463l-2.15 1.525a3.524 3.524 0 0 1 .063.538q.012.287.012.537t-.012.525a3.482 3.482 0 0 1-.062.525l2.15 1.55a.834.834 0 0 1 .3.45.65.65 0 0 1-.075.525L106.8-863.5a.725.725 0 0 1-.425.362.743.743 0 0 1-.55-.037l-2.325-1.075a8.3 8.3 0 0 1-.912.638 4.356 4.356 0 0 1-1.012.462l-.4 2.525a.735.735 0 0 1-.263.45.745.745 0 0 1-.488.175zm-1.65-6.75a3.133 3.133 0 0 0 2.3-.95 3.133 3.133 0 0 0 .95-2.3 3.133 3.133 0 0 0-.95-2.3 3.133 3.133 0 0 0-2.3-.95 3.133 3.133 0 0 0-2.3.95 3.133 3.133 0 0 0-.95 2.3 3.133 3.133 0 0 0 .95 2.3 3.133 3.133 0 0 0 2.3.95z" transform="translate(1492.22 897)" style="fill:#fff"/>
        </g>
    </g>
</svg>
