<svg xmlns="http://www.w3.org/2000/svg" width="16" height="16" viewBox="0 0 16 16">
    <path data-name="사각형 1043" style="fill:none" d="M0 0h16v16H0z"/>
    <path d="M50-865.28a1.653 1.653 0 0 1-1.2-.49 1.606 1.606 0 0 1-.5-1.191 1.636 1.636 0 0 1 .5-1.2 1.638 1.638 0 0 1 1.2-.5l.5-.475a1.286 1.286 0 0 1 .388-.265 1.107 1.107 0 0 1 .457-.1 1.125 1.125 0 0 1 .84.35 1.168 1.168 0 0 1 .34.844v.366a.942.942 0 0 0 .29.69.942.942 0 0 0 .69.29.92.92 0 0 0 .569-.191 1.032 1.032 0 0 0 .358-.488l.253-.7a1.75 1.75 0 0 1 .6-.841 1.554 1.554 0 0 1 .968-.32 7.067 7.067 0 0 0 .361-1.219 6.514 6.514 0 0 0 .13-1.3 6.436 6.436 0 0 0-.93-3.41 7.009 7.009 0 0 0-2.45-2.43v.78a1.618 1.618 0 0 1-.493 1.187 1.618 1.618 0 0 1-1.187.493h-.84v1.7a.807.807 0 0 1-.25.59.807.807 0 0 1-.59.25h-.84v1.42a1.065 1.065 0 0 1-.317.78 1.059 1.059 0 0 1-.783.32 1.133 1.133 0 0 1-.53-.13 1.161 1.161 0 0 1-.41-.35l-1.342-2.04h-.842v.834a1.6 1.6 0 0 1-.43 1.116 1.674 1.674 0 0 1-1.05.55 6.671 6.671 0 0 0 2.375 3.63A6.487 6.487 0 0 0 50-865.28zm1.689-5.06a.817.817 0 0 1-.6-.25.807.807 0 0 1-.25-.59.807.807 0 0 1 .25-.59.817.817 0 0 1 .6-.25h.822a.817.817 0 0 1 .6.25.807.807 0 0 1 .25.59.807.807 0 0 1-.25.59.817.817 0 0 1-.6.25zm1.959-2.52a.813.813 0 0 1-.668-.33.738.738 0 0 1-.129-.728l.329-.922a.892.892 0 0 1 .3-.41.74.74 0 0 1 .448-.15.813.813 0 0 1 .668.33.738.738 0 0 1 .129.728l-.329.922a.893.893 0 0 1-.3.41.74.74 0 0 1-.448.15zM50.005-864a7.744 7.744 0 0 1-3.11-.63 8.129 8.129 0 0 1-2.545-1.72 8.124 8.124 0 0 1-1.72-2.547 7.758 7.758 0 0 1-.63-3.113 7.758 7.758 0 0 1 .63-3.113 8.005 8.005 0 0 1 1.72-2.537 8.212 8.212 0 0 1 2.547-1.71 7.76 7.76 0 0 1 3.113-.63 7.76 7.76 0 0 1 3.113.63 8.09 8.09 0 0 1 2.537 1.71 8.08 8.08 0 0 1 1.71 2.54 7.777 7.777 0 0 1 .63 3.115 7.744 7.744 0 0 1-.63 3.11 8.17 8.17 0 0 1-1.71 2.542 8.075 8.075 0 0 1-2.54 1.72 7.737 7.737 0 0 1-3.115.633z" transform="translate(-42 880)" style="fill:rgba(255,255,255,.5)"/>
</svg>
