<svg xmlns="http://www.w3.org/2000/svg" width="16" height="16" viewBox="0 0 16 16">
    <path data-name="사각형 1005" style="fill:none" d="M0 0h16v16H0z"/>
    <path d="M123.617-870.55a.752.752 0 0 1-.554-.224.753.753 0 0 1-.224-.554.753.753 0 0 1 .224-.554.753.753 0 0 1 .554-.224.753.753 0 0 1 .554.224.753.753 0 0 1 .224.554.753.753 0 0 1-.224.554.752.752 0 0 1-.554.224zm3.442 0a.752.752 0 0 1-.554-.224.753.753 0 0 1-.224-.554.753.753 0 0 1 .224-.554.753.753 0 0 1 .554-.224.753.753 0 0 1 .554.224.753.753 0 0 1 .224.554.753.753 0 0 1-.224.554.752.752 0 0 1-.555.224zm3.306 0a.752.752 0 0 1-.554-.224.753.753 0 0 1-.224-.554.753.753 0 0 1 .224-.554.753.753 0 0 1 .554-.224.753.753 0 0 1 .554.224.753.753 0 0 1 .224.554.753.753 0 0 1-.224.554.752.752 0 0 1-.555.224zm-9.2 6.106a1.119 1.119 0 0 1-.817-.35 1.119 1.119 0 0 1-.35-.817v-12.056a1.119 1.119 0 0 1 .35-.817 1.119 1.119 0 0 1 .817-.35h1.264V-880h1.264v1.167h6.611V-880h1.264v1.167h1.264a1.119 1.119 0 0 1 .817.35 1.119 1.119 0 0 1 .35.817v12.056a1.119 1.119 0 0 1-.35.817 1.119 1.119 0 0 1-.817.35zm0-1.167h11.667v-8.361h-11.665z" transform="translate(-119 880)" style="fill:#929397"/>
</svg>
