<svg xmlns="http://www.w3.org/2000/svg" width="16" height="16" viewBox="0 0 16 16">
    <path data-name="사각형 1027" style="fill:none" d="M0 0h16v16H0z"/>
    <path d="M128.9-831.305a.5.5 0 0 1-.153-.369.475.475 0 0 1 .153-.36l1.356-1.356h-5.424a.491.491 0 0 1-.362-.147.5.5 0 0 1-.146-.364.486.486 0 0 1 .146-.361.5.5 0 0 1 .362-.144h5.39l-1.373-1.373a.469.469 0 0 1-.136-.347.494.494 0 0 1 .156-.364.469.469 0 0 1 .358-.153.5.5 0 0 1 .367.153l2.254 2.254a.508.508 0 0 1 .119.172.509.509 0 0 1 .034.186.491.491 0 0 1-.034.184.516.516 0 0 1-.119.169l-2.237 2.237a.471.471 0 0 1-.347.136.5.5 0 0 1-.364-.153zm-7.881 3.508a.975.975 0 0 1-.712-.305.975.975 0 0 1-.305-.712v-10.169a.976.976 0 0 1 .305-.712.976.976 0 0 1 .712-.305h4.424a.491.491 0 0 1 .362.147.5.5 0 0 1 .146.364.486.486 0 0 1-.146.361.5.5 0 0 1-.362.144h-4.424v10.169h4.424a.49.49 0 0 1 .362.147.5.5 0 0 1 .146.364.486.486 0 0 1-.146.361.5.5 0 0 1-.362.144z" transform="translate(-118 842)" style="fill:rgba(255,255,255,.5)"/>
</svg>
