<svg xmlns="http://www.w3.org/2000/svg" width="16" height="16" viewBox="0 0 16 16">
    <path data-name="사각형 1031" style="fill:none" d="M0 0h16v16H0z"/>
    <path d="M43.871-714.048a2.008 2.008 0 0 0 1.476-.6 2.008 2.008 0 0 0 .6-1.476 2.008 2.008 0 0 0-.6-1.476 2.008 2.008 0 0 0-1.476-.6 2.008 2.008 0 0 0-1.476.6 2.008 2.008 0 0 0-.6 1.476 2.008 2.008 0 0 0 .6 1.476 2.008 2.008 0 0 0 1.476.6zm0 1.79a3.733 3.733 0 0 1-2.742-1.129A3.733 3.733 0 0 1 40-716.129a3.733 3.733 0 0 1 1.129-2.742A3.733 3.733 0 0 1 43.871-720a3.537 3.537 0 0 1 2.3.75 3.947 3.947 0 0 1 1.3 1.911h5.355a.473.473 0 0 1 .177.032.49.49 0 0 1 .161.113l.694.694a.49.49 0 0 1 .113.161.474.474 0 0 1 .032.177.473.473 0 0 1-.032.177.491.491 0 0 1-.113.161l-1.677 1.677a.491.491 0 0 1-.161.113.474.474 0 0 1-.177.032.474.474 0 0 1-.177-.032.491.491 0 0 1-.161-.113l-1.016-1.016-1.016 1.016a.491.491 0 0 1-.161.113.474.474 0 0 1-.177.032.474.474 0 0 1-.177-.032.491.491 0 0 1-.161-.113l-.806-.806h-.516a3.415 3.415 0 0 1-1.3 1.952 3.733 3.733 0 0 1-2.304.743z" transform="translate(-39 724)" style="fill:rgba(255,255,255,.5)"/>
</svg>
