<svg xmlns="http://www.w3.org/2000/svg" width="16" height="16" viewBox="0 0 16 16">
    <path data-name="사각형 1032" style="fill:none" d="M0 0h16v16H0z"/>
    <path d="m127.156-828.889.133.711a.587.587 0 0 0 .211.356.6.6 0 0 0 .389.133h.222a.575.575 0 0 0 .389-.144.637.637 0 0 0 .211-.367l.133-.689a2.975 2.975 0 0 0 .756-.333 3.467 3.467 0 0 0 .578-.467l.844.267a.639.639 0 0 0 .456-.033.681.681 0 0 0 .322-.322l.089-.156a.676.676 0 0 0 .044-.478.615.615 0 0 0-.289-.367l-.556-.356a4.652 4.652 0 0 0 .089-.867 4.651 4.651 0 0 0-.089-.867l.556-.356a.616.616 0 0 0 .289-.378.636.636 0 0 0-.044-.467l-.089-.156a.68.68 0 0 0-.322-.322.639.639 0 0 0-.456-.033l-.844.267a3.468 3.468 0 0 0-.578-.467 2.975 2.975 0 0 0-.756-.333l-.133-.711a.587.587 0 0 0-.211-.356.6.6 0 0 0-.389-.133h-.222a.575.575 0 0 0-.389.144.636.636 0 0 0-.211.367l-.133.689a2.975 2.975 0 0 0-.756.333 3.467 3.467 0 0 0-.578.467l-.844-.267a.639.639 0 0 0-.456.033.68.68 0 0 0-.322.322l-.089.156a.676.676 0 0 0-.044.478.615.615 0 0 0 .289.367l.556.356a4.65 4.65 0 0 0-.089.867 4.651 4.651 0 0 0 .089.867l-.556.356a.616.616 0 0 0-.289.378.636.636 0 0 0 .044.467l.089.156a.681.681 0 0 0 .322.322.639.639 0 0 0 .456.033l.844-.267a3.467 3.467 0 0 0 .578.467 2.975 2.975 0 0 0 .756.333zm.844-1.222a1.827 1.827 0 0 1-1.344-.544 1.827 1.827 0 0 1-.544-1.344 1.827 1.827 0 0 1 .544-1.344 1.826 1.826 0 0 1 1.344-.544 1.826 1.826 0 0 1 1.344.544 1.827 1.827 0 0 1 .544 1.344 1.827 1.827 0 0 1-.544 1.344 1.827 1.827 0 0 1-1.344.544zM122.333-825a1.279 1.279 0 0 1-.933-.4 1.279 1.279 0 0 1-.4-.933v-11.333a1.279 1.279 0 0 1 .4-.933 1.279 1.279 0 0 1 .933-.4h11.333a1.279 1.279 0 0 1 .933.4 1.279 1.279 0 0 1 .4.933v11.333a1.279 1.279 0 0 1-.4.933 1.279 1.279 0 0 1-.933.4z" transform="translate(-120 840)" style="fill:#fff"/>
</svg>
