<svg xmlns="http://www.w3.org/2000/svg" width="24" height="24" viewBox="0 0 24 24">
    <path data-name="사각형 1023" style="fill:none" d="M0 0h24v24H0z"/>
    <path d="M161.529-786a1.471 1.471 0 0 1-1.081-.45 1.477 1.477 0 0 1-.448-1.082v-6.562a1.474 1.474 0 0 1 .45-1.081 1.477 1.477 0 0 1 1.083-.45 1.471 1.471 0 0 1 1.081.45 1.477 1.477 0 0 1 .448 1.081v6.563a1.474 1.474 0 0 1-.45 1.082 1.477 1.477 0 0 1-1.083.449zm5.471 0a1.471 1.471 0 0 1-1.081-.45 1.477 1.477 0 0 1-.448-1.082v-10.937a1.474 1.474 0 0 1 .45-1.081A1.477 1.477 0 0 1 167-800a1.471 1.471 0 0 1 1.081.45 1.477 1.477 0 0 1 .448 1.081v10.938a1.474 1.474 0 0 1-.45 1.082A1.477 1.477 0 0 1 167-786zm5.469 0a1.471 1.471 0 0 1-1.081-.45 1.477 1.477 0 0 1-.448-1.082v-3.062a1.474 1.474 0 0 1 .45-1.081 1.477 1.477 0 0 1 1.083-.45 1.471 1.471 0 0 1 1.081.45 1.477 1.477 0 0 1 .448 1.081v3.063a1.474 1.474 0 0 1-.45 1.082 1.477 1.477 0 0 1-1.085.449z" transform="translate(-155 805)" style="fill:rgba(255,255,255,.5)"/>
</svg>
