<svg xmlns="http://www.w3.org/2000/svg" width="18" height="18" viewBox="0 0 18 18">
    <path data-name="사각형 1026" style="fill:none" d="M0 0h18v18H0z"/>
    <path data-name="제외 1" d="M-3193-1695h-16v-16h16v16zm-5.793-10.768a.408.408 0 0 0-.3.123.43.43 0 0 0-.13.3.376.376 0 0 0 .116.3l2.419 2.419-2.433 2.433a.406.406 0 0 0-.124.3.4.4 0 0 0 .124.3.423.423 0 0 0 .289.13h.017a.373.373 0 0 0 .271-.116l2.75-2.75a.4.4 0 0 0 .124-.289.4.4 0 0 0-.124-.289l-2.708-2.722a.4.4 0 0 0-.291-.139zm-4.371-.028a.4.4 0 0 0-.3.124l-2.75 2.749a.4.4 0 0 0-.123.289.4.4 0 0 0 .123.289l2.721 2.708a.408.408 0 0 0 .3.123.408.408 0 0 0 .3-.123.4.4 0 0 0 .123-.289.4.4 0 0 0-.123-.289l-2.419-2.419 2.446-2.446a.406.406 0 0 0 .124-.3.4.4 0 0 0-.124-.3.4.4 0 0 0-.299-.12z" transform="translate(3210 1712)" style="fill:#fff"/>
</svg>
