<svg xmlns="http://www.w3.org/2000/svg" width="24" height="24" viewBox="0 0 24 24">
    <path data-name="사각형 1022" style="fill:none" d="M0 0h24v24H0z"/>
    <path d="M130.274-866.173a.368.368 0 0 0 .269-.115.368.368 0 0 0 .115-.269v-2.112a.368.368 0 0 0-.115-.269.368.368 0 0 0-.269-.115.368.368 0 0 0-.269.115.368.368 0 0 0-.115.269v2.112a.368.368 0 0 0 .115.269.368.368 0 0 0 .269.115zm0-3.63a.364.364 0 0 0 .269-.118.382.382 0 0 0 .115-.276.382.382 0 0 0-.115-.276.364.364 0 0 0-.269-.118.36.36 0 0 0-.278.115.392.392 0 0 0-.106.274.407.407 0 0 0 .106.279.354.354 0 0 0 .278.123zm0 5.147a3.591 3.591 0 0 1-2.636-1.09 3.591 3.591 0 0 1-1.09-2.636 3.591 3.591 0 0 1 1.09-2.636 3.59 3.59 0 0 1 2.636-1.09 3.59 3.59 0 0 1 2.636 1.09 3.591 3.591 0 0 1 1.09 2.636 3.591 3.591 0 0 1-1.09 2.636 3.591 3.591 0 0 1-2.636 1.09zm-2.189-10.62h3.053l-3.63-3.572 3.63 3.572-3.63-3.572v3a.558.558 0 0 0 .166.41.557.557 0 0 0 .411.162zm-6.933 10.639a1.109 1.109 0 0 1-.814-.339 1.109 1.109 0 0 1-.338-.814v-13.059a1.11 1.11 0 0 1 .338-.814 1.11 1.11 0 0 1 .814-.338h6.448a1.112 1.112 0 0 1 .456.1 1.211 1.211 0 0 1 .37.25l3.514 3.514a1.211 1.211 0 0 1 .25.37 1.112 1.112 0 0 1 .1.456v2.5a5.411 5.411 0 0 0-.992-.326 4.651 4.651 0 0 0-1.024-.115 4.713 4.713 0 0 0-1.536.25 5.139 5.139 0 0 0-1.344.691h-3.764a.556.556 0 0 0-.41.167.563.563 0 0 0-.166.413.551.551 0 0 0 .166.41.562.562 0 0 0 .41.163h2.631a4.3 4.3 0 0 0-.526 1 6.4 6.4 0 0 0-.3 1.11h-1.805a.556.556 0 0 0-.41.167.562.562 0 0 0-.166.413.551.551 0 0 0 .166.41.562.562 0 0 0 .41.163h1.786a4.812 4.812 0 0 0 .547 1.805 4.921 4.921 0 0 0 1.181 1.46z" transform="translate(-114.5 884)" style="fill:rgba(255,255,255,.5)"/>
</svg>
