<svg xmlns="http://www.w3.org/2000/svg" width="18" height="18" viewBox="0 0 18 18">
    <path data-name="사각형 994" style="fill:none" d="M0 0h18v18H0z"/>
    <path d="M161.313-809.578a1.264 1.264 0 0 1-.927-.386 1.264 1.264 0 0 1-.386-.927v-8.531a1.3 1.3 0 0 1 .139-.591 1.259 1.259 0 0 1 .386-.459l5.688-4.266a1.4 1.4 0 0 1 .379-.2A1.3 1.3 0 0 1 167-825a1.276 1.276 0 0 1 .409.066 1.366 1.366 0 0 1 .374.2l5.688 4.266a1.259 1.259 0 0 1 .386.459 1.3 1.3 0 0 1 .139.591v8.531a1.264 1.264 0 0 1-.386.927 1.264 1.264 0 0 1-.927.386h-3.933v-6.126h-3.5v6.125z" transform="translate(-158 826)" style="fill:#4199ff"/>
</svg>
