<svg xmlns="http://www.w3.org/2000/svg" width="18" height="18" viewBox="0 0 18 18">
    <path data-name="사각형 1025" style="fill:none" d="M0 0h18v18H0z"/>
    <path data-name="제외 1" d="M16 16H0V0h16v16zM2.764 10.141a.99.99 0 1 0 .7 1.69.952.952 0 0 0 .292-.7c0-.046 0-.1-.007-.145a1.3 1.3 0 0 0-.036-.184l2.83-2.824c.2.029.306.042.321.042a1.28 1.28 0 0 0 .146-.007 1.322 1.322 0 0 0 .184-.035l1.555 1.556a1.269 1.269 0 0 0-.035.184c0 .05-.007.1-.007.145a.99.99 0 0 0 1.98 0c0-.046 0-.1-.007-.145a1.275 1.275 0 0 0-.035-.184l2.262-2.264a1.317 1.317 0 0 0 .184.036c.05 0 .1.007.145.007a.99.99 0 0 0 .7-1.689.956.956 0 0 0-.7-.291 1.791 1.791 0 0 0-.992.986c0 .046 0 .094.007.145a1.321 1.321 0 0 0 .035.184l-2.265 2.263a1.281 1.281 0 0 0-.184-.035c-.05 0-.1-.007-.141-.007s-.092 0-.141.007a1.274 1.274 0 0 0-.184.035L7.816 7.356a5.51 5.51 0 0 0 .042-.322.99.99 0 1 0-1.979-.006c0 .053 0 .1.006.144a1.475 1.475 0 0 0 .036.185l-2.829 2.827a1.315 1.315 0 0 0-.184-.035 1.47 1.47 0 0 0-.144-.008z" transform="translate(1 1)" style="fill:#fff"/>
</svg>
