<svg xmlns="http://www.w3.org/2000/svg" width="40" height="40" viewBox="0 0 40 40">
    <path data-name="사각형 66" style="fill:none" d="M0 0h40v40H0z"/>
    <path data-name="패스 785" d="M20.457 18.534a6.838 6.838 0 0 0-4.485 4.224 4.728 4.728 0 0 0-.282 2.182l-.011 1.46-.837-.066a18.223 18.223 0 0 1-6.33-1.813A17.284 17.284 0 0 1 3 20.358a5.256 5.256 0 0 0-.837-.837 1.516 1.516 0 0 0-.315.533 7.079 7.079 0 0 0 .032 5.6 7.615 7.615 0 0 0 1.77 2.28l.522.413-.572-.062a5.519 5.519 0 0 1-1.248-.347 8.037 8.037 0 0 0-.944-.347q-.261-.066-.184.651a6.7 6.7 0 0 0 4.5 5.614c.336.109.542.218.467.261a6.539 6.539 0 0 1-1.314.054 6.075 6.075 0 0 0-1.259.043c-.109.109.174.792.608 1.477A6.638 6.638 0 0 0 8.95 38.72l.651.086L9 39.2a13.307 13.307 0 0 1-7.677 2.117c-.9-.054-1.13-.032-1.238.1-.174.206-.218.174 1.422 1.01a18.017 18.017 0 0 0 7.763 2.03 18.124 18.124 0 0 0 15.712-7.286 20.084 20.084 0 0 0 3.888-11.434 2.664 2.664 0 0 1 .1-1A14.93 14.93 0 0 0 32 21.529a1.53 1.53 0 0 0-.6.163 20.518 20.518 0 0 1-2.638.694l-.381.066.326-.238a8.178 8.178 0 0 0 2.139-2.475 4.072 4.072 0 0 0 .37-.846 2.136 2.136 0 0 0-.6.238 12.826 12.826 0 0 1-2.606 1l-.912.25-.554-.488a7.457 7.457 0 0 0-2.725-1.4 8.364 8.364 0 0 0-3.366.043z" transform="translate(3.995 -10.673)" style="fill:rgba(255,255,255,.5)"/>
</svg>
