<svg xmlns="http://www.w3.org/2000/svg" width="39.999" height="39.999" viewBox="0 0 39.999 39.999">
    <path data-name="사각형 64" style="fill:none" d="M0 0h39.999v39.999H0z"/>
    <path data-name="빼기 1" d="M29.636 32H2.365A2.332 2.332 0 0 1 0 29.709V2.293A2.332 2.332 0 0 1 2.365 0h27.271A2.332 2.332 0 0 1 32 2.293v27.416A2.331 2.331 0 0 1 29.636 32zM12.378 12.371c.062 1.343 0 14.277 0 14.406h4.786v-8.042a3.176 3.176 0 0 1 .158-1.168 2.985 2.985 0 0 1 .862-1.2 2.46 2.46 0 0 1 1.595-.553c1.587 0 2.426 1.126 2.426 3.257v7.705h4.789v-8.259a7.011 7.011 0 0 0-1.575-4.9 5.181 5.181 0 0 0-3.937-1.583 4.945 4.945 0 0 0-2.871.821 5.375 5.375 0 0 0-1.444 1.557v-2.041zm-7.442 0v14.408h4.789V12.373zm2.427-6.942a2.493 2.493 0 0 0-2.709 2.49A2.46 2.46 0 0 0 7.3 10.406h.03a2.791 2.791 0 0 0 1.98-.725 2.411 2.411 0 0 0 .729-1.762 2.486 2.486 0 0 0-2.676-2.49z" transform="translate(4 3.999)" style="fill:rgba(255,255,255,.5)"/>
</svg>
