<svg xmlns="http://www.w3.org/2000/svg" width="40" height="40" viewBox="0 0 40 40">
    <path data-name="사각형 68" style="fill:none" d="M0 0h40v40H0z"/>
    <path data-name="사각형 65" style="fill:none" d="M0 0h32v32H0z" transform="translate(4 4)"/>
    <path data-name="패스 782" d="M33.531 16.247a1.513 1.513 0 0 0-.474.237c-.074.045-.146.155-.227.118-.1-.045-.045-.173-.045-.264V4.626a3.368 3.368 0 0 0-.155-1.048 2.912 2.912 0 0 0-2.771-2.068c-3.645.027-7.291.01-10.936.01H7.867a2.464 2.464 0 0 0-1.112.254 2.921 2.921 0 0 0-1.686 2.707c-.027 3.973-.01 7.947-.01 11.92 0 .074.037.165-.037.21s-.136-.037-.192-.082a1.577 1.577 0 0 0-.646-.3.618.618 0 0 0-.7.584 1.175 1.175 0 0 0 .318.875 9.833 9.833 0 0 0 1.312 1.294 18.9 18.9 0 0 0 4.84 2.89c.21.082.237.182.182.382a13.276 13.276 0 0 0-.536 4.228 7.5 7.5 0 0 0 .947 3.509 5.337 5.337 0 0 0 4.949 2.925 3.353 3.353 0 0 0 1.477-.429 2.68 2.68 0 0 0 1.122-1.1 3.287 3.287 0 0 0 .41-1.65c.01-1.331 0-2.67 0-4v-1.85c0-.165.045-.227.219-.173a1.873 1.873 0 0 0 .3.074.355.355 0 0 1 .291.382v5.41a4.069 4.069 0 0 0 .074.821 3.018 3.018 0 0 0 2.606 2.5 4.64 4.64 0 0 0 1.622-.074 5.353 5.353 0 0 0 3.491-2.515 7.913 7.913 0 0 0 1.149-4.12 13.813 13.813 0 0 0-.555-3.946c-.054-.21-.018-.3.182-.382a19.3 19.3 0 0 0 3.918-2.17 12.536 12.536 0 0 0 2.224-2 1.541 1.541 0 0 0 .328-.675.648.648 0 0 0-.821-.774zm-2.515 1.485a15.505 15.505 0 0 1-6.1 1.714 25.958 25.958 0 0 1-3.035 0 5.365 5.365 0 0 0-1.322.037 1.422 1.422 0 0 0-1.2 1.184c-.045.237-.064.246-.264.091a8.292 8.292 0 0 1-.9-.774 2.117 2.117 0 0 0-1.677-.565c-1.122.045-2.234.1-3.354.037a15.763 15.763 0 0 1-3.73-.656 14.886 14.886 0 0 1-2.506-1.021.27.27 0 0 1-.165-.274q0-5.729.01-11.446a7.939 7.939 0 0 1 .074-1.23 1.724 1.724 0 0 1 1.758-1.64c.2-.018.392-.027.592-.027h19.694a3.678 3.678 0 0 1 .774.082 1.774 1.774 0 0 1 1.43 1.43 4.772 4.772 0 0 1 .128 1.075q0 5.81.01 11.611a.344.344 0 0 1-.219.374z" transform="translate(1.078 2.732)" style="fill:rgba(255,255,255,.5)"/>
    <path data-name="패스 783" d="M53.963 60.232a4.109 4.109 0 0 0-2.562.829 3.422 3.422 0 0 0-.318 5.2 4.015 4.015 0 0 0 4.939.464 3.408 3.408 0 0 0 1.23-4.493 3.715 3.715 0 0 0-3.29-2z" transform="translate(-38.027 -46.593)" style="fill:rgba(255,255,255,.5)"/>
    <path data-name="패스 784" d="M108.84 60.24a4.008 4.008 0 0 0-2.37.784 3.411 3.411 0 0 0-.821 4.7 3.979 3.979 0 0 0 5.213 1.1 3.433 3.433 0 0 0 1.5-4.4 3.874 3.874 0 0 0-3.522-2.184z" transform="translate(-84.238 -46.602)" style="fill:rgba(255,255,255,.5)"/>
</svg>
