<svg xmlns="http://www.w3.org/2000/svg" width="39.994" height="39.994" viewBox="0 0 39.994 39.994">
    <path data-name="사각형 63" style="fill:none" d="M0 0h39.994v39.994H0z"/>
    <path data-name="패스 778" d="M0 1.6v28.8A1.6 1.6 0 0 0 1.6 32h15.142a.289.289 0 0 0 .283-.29V19.745a.291.291 0 0 0-.291-.291h-3.419a.291.291 0 0 1-.291-.288L13 17.159l-.021-2.013a.292.292 0 0 1 .291-.294h3.443a.292.292 0 0 0 .291-.283l.053-2.229a12.8 12.8 0 0 1 .266-3.163 5.239 5.239 0 0 1 3.864-3.816 8.232 8.232 0 0 1 2.645-.2c1.051.013 2.125.061 2.379.1l.232.042a.291.291 0 0 1 .24.286v3.4a.291.291 0 0 1-.28.291l-1.338.05c-1.474.048-1.654.085-2.149.374-.882.52-1 .882-1 3.163v1.646a.292.292 0 0 0 .286.291l2.045.032 1.987.021a.291.291 0 0 1 .283.342c-.037.181-.181 1.2-.314 2.246a52.52 52.52 0 0 1-.24 1.752.288.288 0 0 1-.267.24c-.334.021-1.021.042-1.8.05L22.2 19.5a.29.29 0 0 0-.286.29l-.035 5.728c-.013 4.009.013 6.086.1 6.243.107.2.256.237 3.171.242h5.25A1.6 1.6 0 0 0 32 30.4V1.6A1.6 1.6 0 0 0 30.4 0H1.6A1.6 1.6 0 0 0 0 1.6z" transform="translate(4 4)" style="fill:rgba(255,255,255,.5)"/>
</svg>
