<svg xmlns="http://www.w3.org/2000/svg" width="40" height="40" viewBox="0 0 40 40">
    <path data-name="사각형 67" style="fill:none" d="M0 0h40v40H0z"/>
    <path data-name="패스 779" d="M16.014 0a16.15 16.15 0 0 0-5.064 31.44c.8.16 1.087-.347 1.087-.774 0-.374-.026-1.656-.026-2.992-4.455.962-5.383-1.923-5.383-1.923A4.117 4.117 0 0 0 4.852 23.4c-1.458-.989.106-.989.106-.989a3.358 3.358 0 0 1 2.466 1.656 3.392 3.392 0 0 0 4.665 1.333 3.435 3.435 0 0 1 1.011-2.161c-3.552-.374-7.292-1.763-7.292-7.961a6.313 6.313 0 0 1 1.643-4.327 5.873 5.873 0 0 1 .16-4.274s1.352-.427 4.4 1.656a15.263 15.263 0 0 1 8.007 0c3.05-2.083 4.4-1.656 4.4-1.656a5.86 5.86 0 0 1 .158 4.274 6.2 6.2 0 0 1 1.643 4.327c0 6.2-3.738 7.559-7.318 7.961a3.83 3.83 0 0 1 1.087 2.992c0 2.163-.026 3.9-.026 4.434 0 .427.291.934 1.087.774A16.15 16.15 0 0 0 16.014 0z" transform="translate(4 4)" style="fill:rgba(255,255,255,.5);fill-rule:evenodd"/>
</svg>
