<svg xmlns="http://www.w3.org/2000/svg" width="39.994" height="39.994" viewBox="0 0 39.994 39.994">
    <path data-name="사각형 63" style="fill:none" d="M0 0h39.994v39.994H0z"/>
    <path d="M117.489-797.964H109.6a1.388 1.388 0 0 1-1.022-.412 1.388 1.388 0 0 1-.412-1.022v-13.867h-3.873a.672.672 0 0 1-.681-.454.65.65 0 0 1 .2-.789l16.783-15.11a1.322 1.322 0 0 1 .961-.383 1.292 1.292 0 0 1 .952.383l8.607 7.6v-4.16a1.388 1.388 0 0 1 .412-1.022 1.388 1.388 0 0 1 1.022-.412h.956a1.388 1.388 0 0 1 1.022.412 1.388 1.388 0 0 1 .412 1.022v7.7l4.351 3.969a.65.65 0 0 1 .2.789.672.672 0 0 1-.681.454h-3.873v13.866a1.388 1.388 0 0 1-.412 1.022 1.388 1.388 0 0 1-1.022.412h-7.89V-808a1.388 1.388 0 0 0-.412-1.022 1.388 1.388 0 0 0-1.022-.412h-5.26a1.388 1.388 0 0 0-1.022.412 1.388 1.388 0 0 0-.412 1.022z" transform="translate(-101.552 833.5)" style="fill:rgba(255,255,255,.5)"/>
</svg>
