<svg xmlns="http://www.w3.org/2000/svg" width="180" height="40" viewBox="0 0 180 40">
    <defs>
        <filter id="xg44fnw9jc" x="155.281" y="11.181" width="20.297" height="19.48" filterUnits="userSpaceOnUse">
            <feOffset dy="1"/>
            <feGaussianBlur stdDeviation="1" result="blur-3"/>
            <feFlood flood-color="#2b2b2b" flood-opacity=".596"/>
            <feComposite operator="in" in2="blur-3"/>
        </filter>
        <filter id="xp4eqxbxmd" x="155.281" y="11.181" width="20.297" height="19.48" filterUnits="userSpaceOnUse">
            <feOffset dy="-1"/>
            <feGaussianBlur stdDeviation="3" result="blur-4"/>
            <feFlood flood-opacity=".161" result="color"/>
            <feComposite operator="out" in="SourceGraphic" in2="blur-4"/>
            <feComposite operator="in" in="color"/>
            <feComposite operator="in" in2="SourceGraphic"/>
        </filter>
        <filter id="ya4urbf25e" x="128.258" y="11.381" width="18.96" height="19.08" filterUnits="userSpaceOnUse">
            <feOffset dy="1"/>
            <feGaussianBlur stdDeviation="1" result="blur-5"/>
            <feFlood flood-color="#2b2b2b" flood-opacity=".596"/>
            <feComposite operator="in" in2="blur-5"/>
        </filter>
        <filter id="6yd906vwef" x="128.258" y="11.381" width="18.96" height="19.08" filterUnits="userSpaceOnUse">
            <feOffset dy="-1"/>
            <feGaussianBlur stdDeviation="3" result="blur-6"/>
            <feFlood flood-opacity=".161" result="color-2"/>
            <feComposite operator="out" in="SourceGraphic" in2="blur-6"/>
            <feComposite operator="in" in="color-2"/>
            <feComposite operator="in" in2="SourceGraphic"/>
        </filter>
        <filter id="c1ynuqk3ig" x="142.611" y="11.365" width="18.169" height="19.104" filterUnits="userSpaceOnUse">
            <feOffset dy="1"/>
            <feGaussianBlur stdDeviation="1" result="blur-7"/>
            <feFlood flood-color="#2b2b2b" flood-opacity=".596"/>
            <feComposite operator="in" in2="blur-7"/>
        </filter>
        <filter id="6wg0mjf05h" x="142.611" y="11.365" width="18.169" height="19.104" filterUnits="userSpaceOnUse">
            <feOffset dy="-1"/>
            <feGaussianBlur stdDeviation="3" result="blur-8"/>
            <feFlood flood-opacity=".161" result="color-3"/>
            <feComposite operator="out" in="SourceGraphic" in2="blur-8"/>
            <feComposite operator="in" in="color-3"/>
            <feComposite operator="in" in2="SourceGraphic"/>
        </filter>
        <filter id="c1w29o5uhi" x="2.146" y="11.926" width="23.478" height="18.054" filterUnits="userSpaceOnUse">
            <feOffset dy="1"/>
            <feGaussianBlur stdDeviation="1" result="blur-9"/>
            <feFlood flood-color="#2b2b2b" flood-opacity=".596"/>
            <feComposite operator="in" in2="blur-9"/>
            <feComposite in="SourceGraphic"/>
        </filter>
        <filter id="s77kp2jizj" x="2.146" y="11.926" width="23.478" height="18.054" filterUnits="userSpaceOnUse">
            <feOffset dy="-1"/>
            <feGaussianBlur stdDeviation="3" result="blur-10"/>
            <feFlood flood-opacity=".161" result="color-4"/>
            <feComposite operator="out" in="SourceGraphic" in2="blur-10"/>
            <feComposite operator="in" in="color-4"/>
            <feComposite operator="in" in2="SourceGraphic"/>
        </filter>
        <filter id="9mdu384j0k" x="35.223" y="11.929" width="28.681" height="18.019" filterUnits="userSpaceOnUse">
            <feOffset dy="1"/>
            <feGaussianBlur stdDeviation="1" result="blur-11"/>
            <feFlood flood-color="#2b2b2b" flood-opacity=".596"/>
            <feComposite operator="in" in2="blur-11"/>
            <feComposite in="SourceGraphic"/>
        </filter>
        <filter id="qg6492q7il" x="35.223" y="11.929" width="28.681" height="18.019" filterUnits="userSpaceOnUse">
            <feOffset dy="-1"/>
            <feGaussianBlur stdDeviation="3" result="blur-12"/>
            <feFlood flood-opacity=".161" result="color-5"/>
            <feComposite operator="out" in="SourceGraphic" in2="blur-12"/>
            <feComposite operator="in" in="color-5"/>
            <feComposite operator="in" in2="SourceGraphic"/>
        </filter>
        <filter id="upgvpzouhm" x="48.607" y="11.415" width="19.836" height="19.043" filterUnits="userSpaceOnUse">
            <feOffset dy="1"/>
            <feGaussianBlur stdDeviation="1" result="blur-13"/>
            <feFlood flood-color="#2b2b2b" flood-opacity=".596"/>
            <feComposite operator="in" in2="blur-13"/>
        </filter>
        <filter id="alqatky24n" x="48.607" y="11.415" width="19.836" height="19.043" filterUnits="userSpaceOnUse">
            <feOffset dy="-1"/>
            <feGaussianBlur stdDeviation="3" result="blur-14"/>
            <feFlood flood-opacity=".161" result="color-6"/>
            <feComposite operator="out" in="SourceGraphic" in2="blur-14"/>
            <feComposite operator="in" in="color-6"/>
            <feComposite operator="in" in2="SourceGraphic"/>
        </filter>
        <filter id="kogytea3jo" x="63.827" y="11.915" width="18.809" height="18.032" filterUnits="userSpaceOnUse">
            <feOffset dy="1"/>
            <feGaussianBlur stdDeviation="1" result="blur-15"/>
            <feFlood flood-color="#2b2b2b" flood-opacity=".596"/>
            <feComposite operator="in" in2="blur-15"/>
            <feComposite in="SourceGraphic"/>
        </filter>
        <filter id="f5f1lcy14p" x="63.827" y="11.915" width="18.809" height="18.032" filterUnits="userSpaceOnUse">
            <feOffset dy="-1"/>
            <feGaussianBlur stdDeviation="3" result="blur-16"/>
            <feFlood flood-opacity=".161" result="color-7"/>
            <feComposite operator="out" in="SourceGraphic" in2="blur-16"/>
            <feComposite operator="in" in="color-7"/>
            <feComposite operator="in" in2="SourceGraphic"/>
        </filter>
        <filter id="ju2rvmtevq" x="108.345" y="11.855" width="18.844" height="18.13" filterUnits="userSpaceOnUse">
            <feOffset dy="1"/>
            <feGaussianBlur stdDeviation="1" result="blur-17"/>
            <feFlood flood-color="#2b2b2b" flood-opacity=".596"/>
            <feComposite operator="in" in2="blur-17"/>
            <feComposite in="SourceGraphic"/>
        </filter>
        <filter id="1kpf2ogu5r" x="108.345" y="11.855" width="18.844" height="18.13" filterUnits="userSpaceOnUse">
            <feOffset dy="-1"/>
            <feGaussianBlur stdDeviation="3" result="blur-18"/>
            <feFlood flood-opacity=".161" result="color-8"/>
            <feComposite operator="out" in="SourceGraphic" in2="blur-18"/>
            <feComposite operator="in" in="color-8"/>
            <feComposite operator="in" in2="SourceGraphic"/>
        </filter>
        <filter id="9anrc2gt1s" x="93.735" y="11.896" width="18.839" height="18.051" filterUnits="userSpaceOnUse">
            <feOffset dy="1"/>
            <feGaussianBlur stdDeviation="1" result="blur-19"/>
            <feFlood flood-color="#2b2b2b" flood-opacity=".596"/>
            <feComposite operator="in" in2="blur-19"/>
            <feComposite in="SourceGraphic"/>
        </filter>
        <filter id="auiftqfh4t" x="93.735" y="11.896" width="18.839" height="18.051" filterUnits="userSpaceOnUse">
            <feOffset dy="-1"/>
            <feGaussianBlur stdDeviation="3" result="blur-20"/>
            <feFlood flood-opacity=".161" result="color-9"/>
            <feComposite operator="out" in="SourceGraphic" in2="blur-20"/>
            <feComposite operator="in" in="color-9"/>
            <feComposite operator="in" in2="SourceGraphic"/>
        </filter>
        <filter id="fx67pylg0u" x="20.196" y="11.909" width="21.681" height="18.038" filterUnits="userSpaceOnUse">
            <feOffset dy="1"/>
            <feGaussianBlur stdDeviation="1" result="blur-21"/>
            <feFlood flood-color="#2b2b2b" flood-opacity=".596"/>
            <feComposite operator="in" in2="blur-21"/>
            <feComposite in="SourceGraphic"/>
        </filter>
        <filter id="sd8xz9qwav" x="20.196" y="11.909" width="21.681" height="18.038" filterUnits="userSpaceOnUse">
            <feOffset dy="-1"/>
            <feGaussianBlur stdDeviation="3" result="blur-22"/>
            <feFlood flood-opacity=".161" result="color-10"/>
            <feComposite operator="out" in="SourceGraphic" in2="blur-22"/>
            <feComposite operator="in" in="color-10"/>
            <feComposite operator="in" in2="SourceGraphic"/>
        </filter>
        <filter id="b2gw1noyfw" x="76.74" y="11.909" width="21.681" height="18.038" filterUnits="userSpaceOnUse">
            <feOffset dy="1"/>
            <feGaussianBlur stdDeviation="1" result="blur-23"/>
            <feFlood flood-color="#2b2b2b" flood-opacity=".596"/>
            <feComposite operator="in" in2="blur-23"/>
            <feComposite in="SourceGraphic"/>
        </filter>
        <filter id="3s2wu4cl9x" x="76.74" y="11.909" width="21.681" height="18.038" filterUnits="userSpaceOnUse">
            <feOffset dy="-1"/>
            <feGaussianBlur stdDeviation="3" result="blur-24"/>
            <feFlood flood-opacity=".161" result="color-11"/>
            <feComposite operator="out" in="SourceGraphic" in2="blur-24"/>
            <feComposite operator="in" in="color-11"/>
            <feComposite operator="in" in2="SourceGraphic"/>
        </filter>
        <clipPath id="4trd9izyla">
            <path data-name="사각형 955" style="fill:none" d="M0 0h180v40H0z"/>
        </clipPath>
        <clipPath id="gcsgntsjrb">
            <path data-name="사각형 954" transform="translate(1 -2)" style="fill:none" d="M0 0h180v40H0z"/>
        </clipPath>
    </defs>
    <g data-name="그룹 295" style="clip-path:url(#4trd9izyla)">
        <g data-name="그룹 294">
            <g data-name="마스크 그룹 1" transform="translate(-1 2)" style="clip-path:url(#gcsgntsjrb)">
                <g data-type="innerShadowGroup">
                    <g style="filter:url(#xg44fnw9jc)">
                        <path data-name="합치기 2" d="M-3228.861-1714.153a5.67 5.67 0 0 1-2.139-4.578 5.907 5.907 0 0 1 .819-3.085 5.327 5.327 0 0 1 .593-.827 6.977 6.977 0 0 1 .594-.617 6.705 6.705 0 0 1 4.623-1.742 6.829 6.829 0 0 1 4.662 1.71 5.852 5.852 0 0 1 2.006 4.546 5.675 5.675 0 0 1-2.178 4.621 6.741 6.741 0 0 1-4.432 1.6 6.869 6.869 0 0 1-4.548-1.628zm4.439.084a4.84 4.84 0 0 0 1.854-.349 4.5 4.5 0 0 0 .876-.48 4.959 4.959 0 0 0 .592-.489 4.468 4.468 0 0 0 1.387-3.234v-.125a4.858 4.858 0 0 0-.334-1.814 4.575 4.575 0 0 0-1-1.516 4.426 4.426 0 0 0-3.3-1.375 4.449 4.449 0 0 0-2.822.943 5.013 5.013 0 0 0-.483.432l-.082.085a4.58 4.58 0 0 0-1.253 3.274 4.538 4.538 0 0 0 1 2.985 4.578 4.578 0 0 0 .405.431l.041.038a4.463 4.463 0 0 0 3.119 1.194z" transform="translate(3390.78 1736.68)" style="stroke:transparent;stroke-miterlimit:10;fill:#fff"/>
                    </g>
                    <path data-name="합치기 2" d="M-3228.861-1714.153a5.67 5.67 0 0 1-2.139-4.578 5.907 5.907 0 0 1 .819-3.085 5.327 5.327 0 0 1 .593-.827 6.977 6.977 0 0 1 .594-.617 6.705 6.705 0 0 1 4.623-1.742 6.829 6.829 0 0 1 4.662 1.71 5.852 5.852 0 0 1 2.006 4.546 5.675 5.675 0 0 1-2.178 4.621 6.741 6.741 0 0 1-4.432 1.6 6.869 6.869 0 0 1-4.548-1.628zm4.439.084a4.84 4.84 0 0 0 1.854-.349 4.5 4.5 0 0 0 .876-.48 4.959 4.959 0 0 0 .592-.489 4.468 4.468 0 0 0 1.387-3.234v-.125a4.858 4.858 0 0 0-.334-1.814 4.575 4.575 0 0 0-1-1.516 4.426 4.426 0 0 0-3.3-1.375 4.449 4.449 0 0 0-2.822.943 5.013 5.013 0 0 0-.483.432l-.082.085a4.58 4.58 0 0 0-1.253 3.274 4.538 4.538 0 0 0 1 2.985 4.578 4.578 0 0 0 .405.431l.041.038a4.463 4.463 0 0 0 3.119 1.194z" transform="translate(3390.781 1736.681)" style="fill:#fff"/>
                    <g style="filter:url(#xp4eqxbxmd)">
                        <path data-name="합치기 2" d="M-3228.861-1714.153a5.67 5.67 0 0 1-2.139-4.578 5.907 5.907 0 0 1 .819-3.085 5.327 5.327 0 0 1 .593-.827 6.977 6.977 0 0 1 .594-.617 6.705 6.705 0 0 1 4.623-1.742 6.829 6.829 0 0 1 4.662 1.71 5.852 5.852 0 0 1 2.006 4.546 5.675 5.675 0 0 1-2.178 4.621 6.741 6.741 0 0 1-4.432 1.6 6.869 6.869 0 0 1-4.548-1.628zm4.439.084a4.84 4.84 0 0 0 1.854-.349 4.5 4.5 0 0 0 .876-.48 4.959 4.959 0 0 0 .592-.489 4.468 4.468 0 0 0 1.387-3.234v-.125a4.858 4.858 0 0 0-.334-1.814 4.575 4.575 0 0 0-1-1.516 4.426 4.426 0 0 0-3.3-1.375 4.449 4.449 0 0 0-2.822.943 5.013 5.013 0 0 0-.483.432l-.082.085a4.58 4.58 0 0 0-1.253 3.274 4.538 4.538 0 0 0 1 2.985 4.578 4.578 0 0 0 .405.431l.041.038a4.463 4.463 0 0 0 3.119 1.194z" transform="translate(3390.78 1736.68)" style="fill:#fff"/>
                    </g>
                    <path data-name="합치기 2" d="M-3228.861-1714.153a5.67 5.67 0 0 1-2.139-4.578 5.907 5.907 0 0 1 .819-3.085 5.327 5.327 0 0 1 .593-.827 6.977 6.977 0 0 1 .594-.617 6.705 6.705 0 0 1 4.623-1.742 6.829 6.829 0 0 1 4.662 1.71 5.852 5.852 0 0 1 2.006 4.546 5.675 5.675 0 0 1-2.178 4.621 6.741 6.741 0 0 1-4.432 1.6 6.869 6.869 0 0 1-4.548-1.628zm4.439.084a4.84 4.84 0 0 0 1.854-.349 4.5 4.5 0 0 0 .876-.48 4.959 4.959 0 0 0 .592-.489 4.468 4.468 0 0 0 1.387-3.234v-.125a4.858 4.858 0 0 0-.334-1.814 4.575 4.575 0 0 0-1-1.516 4.426 4.426 0 0 0-3.3-1.375 4.449 4.449 0 0 0-2.822.943 5.013 5.013 0 0 0-.483.432l-.082.085a4.58 4.58 0 0 0-1.253 3.274 4.538 4.538 0 0 0 1 2.985 4.578 4.578 0 0 0 .405.431l.041.038a4.463 4.463 0 0 0 3.119 1.194z" transform="translate(3390.781 1736.681)" style="stroke:transparent;stroke-miterlimit:10;fill:none"/>
                </g>
                <g data-type="innerShadowGroup">
                    <g style="filter:url(#ya4urbf25e)">
                        <path data-name="합치기 3" d="m-3221.279-1713.35-7.863-8.823v9.252H-3231v-10.87a1.208 1.208 0 0 1 1.208-1.209 1.444 1.444 0 0 1 1.08.485l7.815 8.783V-1725h1.857v10.8a1.282 1.282 0 0 1-1.281 1.282 1.28 1.28 0 0 1-.958-.432z" transform="translate(3363.76 1736.88)" style="stroke:transparent;stroke-miterlimit:10;fill:#fff"/>
                    </g>
                    <path data-name="합치기 3" d="m-3221.279-1713.35-7.863-8.823v9.252H-3231v-10.87a1.208 1.208 0 0 1 1.208-1.209 1.444 1.444 0 0 1 1.08.485l7.815 8.783V-1725h1.857v10.8a1.282 1.282 0 0 1-1.281 1.282 1.28 1.28 0 0 1-.958-.432z" transform="translate(3363.758 1736.881)" style="fill:#fff"/>
                    <g style="filter:url(#6yd906vwef)">
                        <path data-name="합치기 3" d="m-3221.279-1713.35-7.863-8.823v9.252H-3231v-10.87a1.208 1.208 0 0 1 1.208-1.209 1.444 1.444 0 0 1 1.08.485l7.815 8.783V-1725h1.857v10.8a1.282 1.282 0 0 1-1.281 1.282 1.28 1.28 0 0 1-.958-.432z" transform="translate(3363.76 1736.88)" style="fill:#fff"/>
                    </g>
                    <path data-name="합치기 3" d="m-3221.279-1713.35-7.863-8.823v9.252H-3231v-10.87a1.208 1.208 0 0 1 1.208-1.209 1.444 1.444 0 0 1 1.08.485l7.815 8.783V-1725h1.857v10.8a1.282 1.282 0 0 1-1.281 1.282 1.28 1.28 0 0 1-.958-.432z" transform="translate(3363.758 1736.881)" style="stroke:transparent;stroke-miterlimit:10;fill:none"/>
                </g>
                <g data-type="innerShadowGroup">
                    <g style="filter:url(#c1ynuqk3ig)">
                        <path data-name="합치기 4" d="M-3228.518-1712.9h-1.086a1.393 1.393 0 0 1-1.088-.521 1.387 1.387 0 0 1-.307-.821V-1723.596a1.4 1.4 0 0 1 1.4-1.4H-3219.885v1.669l-7.421-.007h-.927a.771.771 0 0 0-.77.758V-1719.762l8.834.008v1.727l-8.834-.008v2.653a.772.772 0 0 0 .769.717l8.407.007v1.76z" transform="translate(3378.11 1736.87)" style="stroke:transparent;stroke-miterlimit:10;fill:#fff"/>
                    </g>
                    <path data-name="합치기 4" d="M-3228.518-1712.9h-1.086a1.393 1.393 0 0 1-1.088-.521 1.387 1.387 0 0 1-.307-.821V-1723.596a1.4 1.4 0 0 1 1.4-1.4H-3219.885v1.669l-7.421-.007h-.927a.771.771 0 0 0-.77.758V-1719.762l8.834.008v1.727l-8.834-.008v2.653a.772.772 0 0 0 .769.717l8.407.007v1.76z" transform="translate(3378.111 1736.865)" style="fill:#fff"/>
                    <g style="filter:url(#6wg0mjf05h)">
                        <path data-name="합치기 4" d="M-3228.518-1712.9h-1.086a1.393 1.393 0 0 1-1.088-.521 1.387 1.387 0 0 1-.307-.821V-1723.596a1.4 1.4 0 0 1 1.4-1.4H-3219.885v1.669l-7.421-.007h-.927a.771.771 0 0 0-.77.758V-1719.762l8.834.008v1.727l-8.834-.008v2.653a.772.772 0 0 0 .769.717l8.407.007v1.76z" transform="translate(3378.11 1736.87)" style="fill:#fff"/>
                    </g>
                    <path data-name="합치기 4" d="M-3228.518-1712.9h-1.086a1.393 1.393 0 0 1-1.088-.521 1.387 1.387 0 0 1-.307-.821V-1723.596a1.4 1.4 0 0 1 1.4-1.4H-3219.885v1.669l-7.421-.007h-.927a.771.771 0 0 0-.77.758V-1719.762l8.834.008v1.727l-8.834-.008v2.653a.772.772 0 0 0 .769.717l8.407.007v1.76z" transform="translate(3378.111 1736.865)" style="stroke:transparent;stroke-miterlimit:10;fill:none"/>
                </g>
                <g data-type="innerShadowGroup">
                    <g style="filter:url(#c1w29o5uhi)" transform="translate(1 -2)">
                        <path data-name="패스 3338" d="m33.859 47.8-2.271-8.347-3.365 7.595a1.635 1.635 0 0 1-.433.58.971.971 0 0 1-.629.2 1.1 1.1 0 0 1-1.062-.784l-3.349-7.595-2.269 8.351h-2.042l3.054-11.173a.985.985 0 0 1 1.029-.849 1.134 1.134 0 0 1 .613.18 1.118 1.118 0 0 1 .433.523l3.659 8.265 3.659-8.265a1.018 1.018 0 0 1 1-.7 1 1 0 0 1 1 .849l3.031 11.17z" transform="translate(-13.29 -21.85)" style="fill:#fff"/>
                    </g>
                    <g style="filter:url(#s77kp2jizj)" transform="translate(1 -2)">
                        <path data-name="패스 3338" d="m33.859 47.8-2.271-8.347-3.365 7.595a1.635 1.635 0 0 1-.433.58.971.971 0 0 1-.629.2 1.1 1.1 0 0 1-1.062-.784l-3.349-7.595-2.269 8.351h-2.042l3.054-11.173a.985.985 0 0 1 1.029-.849 1.134 1.134 0 0 1 .613.18 1.118 1.118 0 0 1 .433.523l3.659 8.265 3.659-8.265a1.018 1.018 0 0 1 1-.7 1 1 0 0 1 1 .849l3.031 11.17z" transform="translate(-13.29 -21.85)" style="fill:#fff"/>
                    </g>
                </g>
                <g data-type="innerShadowGroup">
                    <g style="filter:url(#9mdu384j0k)" transform="translate(1 -2)">
                        <path data-name="패스 3339" d="M123.436 47.805a5.617 5.617 0 0 1-2.295-.465 5.654 5.654 0 0 1-3.039-3.193 6.918 6.918 0 0 1-.433-2.467 6.769 6.769 0 0 1 .433-2.463 5.285 5.285 0 0 1 1.209-1.838 5.442 5.442 0 0 1 1.83-1.176 6.184 6.184 0 0 1 2.295-.416h6.436v2.073h-6.436a3.762 3.762 0 0 0-1.478.286 3.5 3.5 0 0 0-1.168.792 3.64 3.64 0 0 0-.768 1.209 4.886 4.886 0 0 0 0 3.247 3.692 3.692 0 0 0 .768 1.233 3.536 3.536 0 0 0 1.168.809 3.673 3.673 0 0 0 1.478.294h16.915v2.074z" transform="translate(-79.45 -21.86)" style="fill:#fff"/>
                    </g>
                    <g style="filter:url(#qg6492q7il)" transform="translate(1 -2)">
                        <path data-name="패스 3339" d="M123.436 47.805a5.617 5.617 0 0 1-2.295-.465 5.654 5.654 0 0 1-3.039-3.193 6.918 6.918 0 0 1-.433-2.467 6.769 6.769 0 0 1 .433-2.463 5.285 5.285 0 0 1 1.209-1.838 5.442 5.442 0 0 1 1.83-1.176 6.184 6.184 0 0 1 2.295-.416h6.436v2.073h-6.436a3.762 3.762 0 0 0-1.478.286 3.5 3.5 0 0 0-1.168.792 3.64 3.64 0 0 0-.768 1.209 4.886 4.886 0 0 0 0 3.247 3.692 3.692 0 0 0 .768 1.233 3.536 3.536 0 0 0 1.168.809 3.673 3.673 0 0 0 1.478.294h16.915v2.074z" transform="translate(-79.45 -21.86)" style="fill:#fff"/>
                    </g>
                </g>
                <g data-type="innerShadowGroup">
                    <g style="filter:url(#upgvpzouhm)">
                        <path data-name="합치기 5" d="M-3220.239-1712.957v-4.926h-8.687v-2.074h8.687V-1725h2.074v12.042zM-3231-1716.5v-8.5h2.074v8.505z" transform="translate(3284.11 1736.92)" style="stroke:transparent;stroke-miterlimit:10;fill:#fff"/>
                    </g>
                    <path data-name="합치기 5" d="M-3220.239-1712.957v-4.926h-8.687v-2.074h8.687V-1725h2.074v12.042zM-3231-1716.5v-8.5h2.074v8.505z" transform="translate(3284.107 1736.915)" style="fill:#fff"/>
                    <g style="filter:url(#alqatky24n)">
                        <path data-name="합치기 5" d="M-3220.239-1712.957v-4.926h-8.687v-2.074h8.687V-1725h2.074v12.042zM-3231-1716.5v-8.5h2.074v8.505z" transform="translate(3284.11 1736.92)" style="fill:#fff"/>
                    </g>
                    <path data-name="합치기 5" d="M-3220.239-1712.957v-4.926h-8.687v-2.074h8.687V-1725h2.074v12.042zM-3231-1716.5v-8.5h2.074v8.505z" transform="translate(3284.107 1736.915)" style="stroke:transparent;stroke-miterlimit:10;fill:none"/>
                </g>
                <g data-type="innerShadowGroup">
                    <g style="filter:url(#kogytea3jo)" transform="translate(1 -2)">
                        <path data-name="패스 3341" d="M203.481 47.778V35.746h8.742a5.92 5.92 0 0 1 1.576.2 3.56 3.56 0 0 1 1.217.58 2.6 2.6 0 0 1 .784.964 3.29 3.29 0 0 1 .278 1.384 3.873 3.873 0 0 1-.131 1.062 2.332 2.332 0 0 1-.359.727 2.223 2.223 0 0 1-.531.506 2.284 2.284 0 0 1-.629.3 2.675 2.675 0 0 1 1.339.948 2.774 2.774 0 0 1 .523 1.731 4.093 4.093 0 0 1-.269 1.518 3.227 3.227 0 0 1-.768 1.135 3.367 3.367 0 0 1-1.209.727 4.663 4.663 0 0 1-1.576.253zm3.839-5.2V40.83h4.919a2.134 2.134 0 0 0 1.306-.327 1.315 1.315 0 0 0 .425-1.111 1.884 1.884 0 0 0-.18-.877 1.171 1.171 0 0 0-.514-.441 2.535 2.535 0 0 0-.8-.2 10.078 10.078 0 0 0-1.038-.049h-5.883v7.9h6.063a6.045 6.045 0 0 0 1.029-.082 2.609 2.609 0 0 0 .816-.269 1.43 1.43 0 0 0 .531-.482 1.484 1.484 0 0 0 .188-.774 1.431 1.431 0 0 0-.457-1.136 1.98 1.98 0 0 0-1.34-.4z" transform="translate(-136.65 -21.83)" style="fill:#fff"/>
                    </g>
                    <g style="filter:url(#f5f1lcy14p)" transform="translate(1 -2)">
                        <path data-name="패스 3341" d="M203.481 47.778V35.746h8.742a5.92 5.92 0 0 1 1.576.2 3.56 3.56 0 0 1 1.217.58 2.6 2.6 0 0 1 .784.964 3.29 3.29 0 0 1 .278 1.384 3.873 3.873 0 0 1-.131 1.062 2.332 2.332 0 0 1-.359.727 2.223 2.223 0 0 1-.531.506 2.284 2.284 0 0 1-.629.3 2.675 2.675 0 0 1 1.339.948 2.774 2.774 0 0 1 .523 1.731 4.093 4.093 0 0 1-.269 1.518 3.227 3.227 0 0 1-.768 1.135 3.367 3.367 0 0 1-1.209.727 4.663 4.663 0 0 1-1.576.253zm3.839-5.2V40.83h4.919a2.134 2.134 0 0 0 1.306-.327 1.315 1.315 0 0 0 .425-1.111 1.884 1.884 0 0 0-.18-.877 1.171 1.171 0 0 0-.514-.441 2.535 2.535 0 0 0-.8-.2 10.078 10.078 0 0 0-1.038-.049h-5.883v7.9h6.063a6.045 6.045 0 0 0 1.029-.082 2.609 2.609 0 0 0 .816-.269 1.43 1.43 0 0 0 .531-.482 1.484 1.484 0 0 0 .188-.774 1.431 1.431 0 0 0-.457-1.136 1.98 1.98 0 0 0-1.34-.4z" transform="translate(-136.65 -21.83)" style="fill:#fff"/>
                    </g>
                </g>
                <g data-type="innerShadowGroup">
                    <g style="filter:url(#ju2rvmtevq)" transform="translate(1 -2)">
                        <path data-name="패스 3342" d="M339.281 40.7h10.588v2.077h-10.588v1.855c0 .923.069.992.992.992h9.591V47.7H339.58c-2.308 0-2.545-.237-2.545-2.545v-7.04c0-2.308.237-2.545 2.545-2.545h10.3v2.077h-9.606c-.923 0-.992.069-.992.992z" transform="translate(-225.69 -21.71)" style="fill:#fff"/>
                    </g>
                    <g style="filter:url(#1kpf2ogu5r)" transform="translate(1 -2)">
                        <path data-name="패스 3342" d="M339.281 40.7h10.588v2.077h-10.588v1.855c0 .923.069.992.992.992h9.591V47.7H339.58c-2.308 0-2.545-.237-2.545-2.545v-7.04c0-2.308.237-2.545 2.545-2.545h10.3v2.077h-9.606c-.923 0-.992.069-.992.992z" transform="translate(-225.69 -21.71)" style="fill:#fff"/>
                    </g>
                </g>
                <g data-type="innerShadowGroup">
                    <g style="filter:url(#9anrc2gt1s)" transform="translate(1 -2)">
                        <path data-name="패스 3343" d="M300.952 44.278c0 2.308-.63 3.462-2.938 3.462h-4.807v-2.078h4.115a1.224 1.224 0 0 0 1.385-1.385V39.15q0-3.462 3.462-3.462h3.877v2.077h-3.709a1.224 1.224 0 0 0-1.385 1.385z" transform="translate(-196.47 -21.79)" style="fill:#fff"/>
                    </g>
                    <g style="filter:url(#auiftqfh4t)" transform="translate(1 -2)">
                        <path data-name="패스 3343" d="M300.952 44.278c0 2.308-.63 3.462-2.938 3.462h-4.807v-2.078h4.115a1.224 1.224 0 0 0 1.385-1.385V39.15q0-3.462 3.462-3.462h3.877v2.077h-3.709a1.224 1.224 0 0 0-1.385 1.385z" transform="translate(-196.47 -21.79)" style="fill:#fff"/>
                    </g>
                </g>
                <g data-type="innerShadowGroup">
                    <g style="filter:url(#fx67pylg0u)" transform="translate(1 -2)">
                        <path data-name="패스 3344" d="M81.424 36.4a1.633 1.633 0 0 0-.417-.49.931.931 0 0 0-.58-.18.967.967 0 0 0-.588.18 1.567 1.567 0 0 0-.425.49l-6.827 11.366h2.368l5.39-9.114 4.189 7.04h-5.82l-1.179 2.075h10.733z" transform="translate(-49.39 -21.82)" style="fill:#fff"/>
                    </g>
                    <g style="filter:url(#sd8xz9qwav)" transform="translate(1 -2)">
                        <path data-name="패스 3344" d="M81.424 36.4a1.633 1.633 0 0 0-.417-.49.931.931 0 0 0-.58-.18.967.967 0 0 0-.588.18 1.567 1.567 0 0 0-.425.49l-6.827 11.366h2.368l5.39-9.114 4.189 7.04h-5.82l-1.179 2.075h10.733z" transform="translate(-49.39 -21.82)" style="fill:#fff"/>
                    </g>
                </g>
                <g data-type="innerShadowGroup">
                    <g style="filter:url(#b2gw1noyfw)" transform="translate(1 -2)">
                        <path data-name="패스 3345" d="M251.058 36.4a1.633 1.633 0 0 0-.417-.49.932.932 0 0 0-.58-.18.967.967 0 0 0-.588.18 1.567 1.567 0 0 0-.425.49l-6.828 11.369h2.368l5.39-9.114 4.189 7.04h-5.82l-1.179 2.075H257.9z" transform="translate(-162.48 -21.82)" style="fill:#fff"/>
                    </g>
                    <g style="filter:url(#3s2wu4cl9x)" transform="translate(1 -2)">
                        <path data-name="패스 3345" d="M251.058 36.4a1.633 1.633 0 0 0-.417-.49.932.932 0 0 0-.58-.18.967.967 0 0 0-.588.18 1.567 1.567 0 0 0-.425.49l-6.828 11.369h2.368l5.39-9.114 4.189 7.04h-5.82l-1.179 2.075H257.9z" transform="translate(-162.48 -21.82)" style="fill:#fff"/>
                    </g>
                </g>
            </g>
        </g>
    </g>
</svg>
