<svg xmlns="http://www.w3.org/2000/svg" width="24" height="24" viewBox="0 0 24 24">
    <path data-name="사각형 1024" style="fill:none" d="M0 0h24v24H0z"/>
    <path d="m125.892-910.18-1.944-1.944a.559.559 0 0 0-.408-.175.56.56 0 0 0-.408.175.526.526 0 0 0-.165.408.638.638 0 0 0 .165.408l2.353 2.392a.559.559 0 0 0 .408.175.56.56 0 0 0 .408-.175l4.569-4.569a.571.571 0 0 0 .175-.418.571.571 0 0 0-.175-.418.571.571 0 0 0-.418-.175.571.571 0 0 0-.418.175zm-4.725 5.736a1.125 1.125 0 0 1-.826-.34 1.125 1.125 0 0 1-.34-.826v-11.667a1.125 1.125 0 0 1 .34-.826 1.125 1.125 0 0 1 .826-.34h3.986a1.725 1.725 0 0 1 .622-1.118A1.855 1.855 0 0 1 127-920a1.855 1.855 0 0 1 1.225.438 1.725 1.725 0 0 1 .622 1.118h3.986a1.125 1.125 0 0 1 .826.34 1.125 1.125 0 0 1 .34.826v11.667a1.125 1.125 0 0 1-.34.826 1.125 1.125 0 0 1-.826.34zM127-917.608a.653.653 0 0 0 .476-.2.653.653 0 0 0 .2-.476.653.653 0 0 0-.2-.476.653.653 0 0 0-.476-.2.653.653 0 0 0-.476.2.653.653 0 0 0-.2.476.653.653 0 0 0 .2.476.653.653 0 0 0 .476.2z" transform="translate(-115 923.5)" style="fill:#fdb532"/>
</svg>
