<svg xmlns="http://www.w3.org/2000/svg" width="40" height="40" viewBox="0 0 40 40">
    <path data-name="사각형 961" style="fill:none" d="M0 0h40v40H0z"/>
    <path d="M121.5-822a1.439 1.439 0 0 1-1.05-.45 1.439 1.439 0 0 1-.45-1.05v-15a1.439 1.439 0 0 1 .45-1.05 1.439 1.439 0 0 1 1.05-.45h11.95a1.448 1.448 0 0 1 .593.125 1.576 1.576 0 0 1 .482.325l3.025 3.025a1.577 1.577 0 0 1 .325.482 1.447 1.447 0 0 1 .125.593v11.95a1.439 1.439 0 0 1-.45 1.05 1.439 1.439 0 0 1-1.05.45zm7.494-3.125a2.521 2.521 0 0 0 1.843-.757 2.492 2.492 0 0 0 .762-1.838 2.521 2.521 0 0 0-.757-1.843 2.492 2.492 0 0 0-1.837-.762 2.521 2.521 0 0 0-1.843.757 2.492 2.492 0 0 0-.762 1.837 2.521 2.521 0 0 0 .757 1.843 2.492 2.492 0 0 0 1.837.763zm-5.419-8.475h7.45a.726.726 0 0 0 .534-.216.726.726 0 0 0 .216-.534v-2.075a.725.725 0 0 0-.216-.534.726.726 0 0 0-.534-.216h-7.45a.726.726 0 0 0-.534.216.726.726 0 0 0-.216.534v2.075a.726.726 0 0 0 .216.534.726.726 0 0 0 .534.216z" transform="translate(-109 851)" style="fill:rgba(255,255,255,.5)"/>
</svg>
